<svg style="width:current; height:current" viewBox="0 0 25 25" fill="none" xmlns="http://www.w3.org/2000/svg">
<path d="M13.4208 2.63752C13.0604 1.95627 11.9396 1.95627 11.5791 2.63752L2.20414 20.3459C2.11975 20.5046 2.07791 20.6825 2.08271 20.8621C2.0875 21.0418 2.13876 21.2172 2.23149 21.3712C2.32422 21.5252 2.45527 21.6526 2.61185 21.7409C2.76843 21.8292 2.94522 21.8754 3.12498 21.875H21.875C22.0546 21.8754 22.2313 21.8292 22.3878 21.741C22.5442 21.6527 22.6752 21.5255 22.7678 21.3716C22.8605 21.2176 22.9116 21.0424 22.9164 20.8628C22.9211 20.6832 22.8792 20.5055 22.7948 20.3469L13.4208 2.63752ZM13.5416 18.75H11.4583V16.6667H13.5416V18.75ZM11.4583 14.5834V9.37502H13.5416L13.5427 14.5834H11.4583Z" fill="#F87676"/>
</svg>
