<svg width="24" height="24" viewBox="0 0 24 24" fill="none" xmlns="http://www.w3.org/2000/svg">
<path d="M22 5.09334C21.1067 3.26001 18.5333 1.76001 15.54 2.63334C14.1096 3.0465 12.8617 3.93253 12 5.14667C11.1383 3.93253 9.89036 3.0465 8.46 2.63334C5.46 1.77334 2.89334 3.26001 2 5.09334C0.74667 7.66001 1.26667 10.5467 3.54667 13.6733C5.33334 16.12 7.88667 18.6 11.5933 21.48C11.7105 21.5714 11.8548 21.621 12.0033 21.621C12.1519 21.621 12.2962 21.5714 12.4133 21.48C16.1133 18.6067 18.6733 16.1467 20.46 13.6733C22.7333 10.5467 23.2533 7.66001 22 5.09334V5.09334Z" fill="#FF9D9D"/>
</svg>
