<svg width="16" height="16" viewBox="0 0 18 18" fill="none" xmlns="http://www.w3.org/2000/svg">
<path d="M11.4825 6.51766C13.583 8.62031 13.5541 11.9914 11.4951 14.0618C11.4913 14.066 11.4867 14.0706 11.4825 14.0748L9.11997 16.4373C7.03626 18.521 3.64618 18.5208 1.56278 16.4373C-0.520928 14.354 -0.520928 10.9635 1.56278 8.88015L2.86729 7.57565C3.21323 7.22971 3.80899 7.45963 3.82685 7.94851C3.84963 8.57155 3.96135 9.19751 4.16751 9.80198C4.23733 10.0067 4.18744 10.2331 4.03451 10.386L3.57442 10.8461C2.58914 11.8314 2.55823 13.4357 3.53382 14.4306C4.51904 15.4353 6.13841 15.4413 7.13118 14.4485L9.49368 12.0864C10.4848 11.0953 10.4806 9.49338 9.49368 8.50644C9.36357 8.37658 9.23251 8.27568 9.13013 8.20519C9.05771 8.15546 8.99791 8.08948 8.95551 8.01254C8.9131 7.93559 8.88927 7.8498 8.8859 7.76201C8.87198 7.39052 9.0036 7.0077 9.29716 6.71415L10.0373 5.97393C10.2314 5.77983 10.5359 5.756 10.761 5.91308C11.0188 6.09306 11.2602 6.29537 11.4825 6.51766V6.51766ZM16.4372 1.56267C14.3538 -0.520751 10.9637 -0.521032 8.88003 1.56267L6.51753 3.92517C6.51331 3.92939 6.50874 3.93396 6.50487 3.93818C4.44591 6.0086 4.41705 9.37969 6.51753 11.4823C6.73982 11.7046 6.98123 11.9069 7.23897 12.0869C7.46404 12.244 7.76857 12.2201 7.96263 12.026L8.70281 11.2858C8.99636 10.9923 9.12799 10.6095 9.11407 10.238C9.1107 10.1502 9.08687 10.0644 9.04446 9.98743C9.00206 9.91048 8.94226 9.84451 8.86984 9.79478C8.76746 9.72429 8.6364 9.62339 8.50628 9.49352C7.51934 8.50658 7.51519 6.90466 8.50628 5.91357L10.8688 3.55142C11.8616 2.55865 13.4809 2.56463 14.4661 3.56935C15.4417 4.56427 15.4109 6.16859 14.4255 7.15388L13.9655 7.61397C13.8125 7.7669 13.7626 7.9933 13.8325 8.19798C14.0386 8.80246 14.1503 9.42841 14.1731 10.0515C14.191 10.5403 14.7867 10.7703 15.1327 10.4243L16.4372 9.11981C18.5209 7.03649 18.5209 3.64603 16.4372 1.56267V1.56267Z" fill="#999999"/>
</svg>
