<svg width="40" height="40" viewBox="0 0 40 40" fill="none" xmlns="http://www.w3.org/2000/svg">
<path d="M5.59741 35.9291C5.59741 35.9291 6.74116 40.3216 13.8855 39.1972L15.1062 36.2572L13.0499 34.0222L7.35929 32.1459L5.60054 35.9291" fill="#34484C"/>
<path d="M28.3686 27.6966C28.3686 29.2541 27.5699 29.6635 25.5499 30.5166L8.29363 37.8022C7.92325 37.8022 7.5565 37.7293 7.21432 37.5875C6.87214 37.4457 6.56124 37.238 6.29937 36.976C6.0375 36.7141 5.82979 36.4032 5.68811 36.061C5.54643 35.7187 5.47355 35.352 5.47363 34.9816V10.7378C5.47363 9.17909 6.38988 8.66034 8.29363 7.91722L25.5499 0.631592C25.9202 0.631592 26.2868 0.704542 26.6289 0.846276C26.9709 0.98801 27.2817 1.19575 27.5435 1.45763C27.8052 1.7195 28.0128 2.03039 28.1544 2.37252C28.296 2.71465 28.3688 3.08132 28.3686 3.45159V27.7016" fill="#085B50"/>
<path d="M7.04237 37.5053C7.04237 37.5053 13.5092 39.3616 13.8861 39.2016C14.2642 39.0422 13.6455 36.3972 13.6455 36.3972L11.3074 33.8766L9.12862 33.7753L8.7455 34.3191L7.04175 37.5053" fill="#34484C"/>
<path d="M25.1437 2.30661L6.00122 10.3479L6.89872 15.5041L9.74872 15.7872L19.2568 14.2566L25.1693 11.1585L29.5225 5.19786C28.5712 3.49161 27.175 2.43598 25.1437 2.30536" fill="#F4F5F5"/>
<path d="M11.073 12.1316C11.073 11.6785 11.1517 11.3179 11.3074 11.0104C9.34737 10.8279 7.49612 10.2604 6.148 9.04474C5.7005 9.45724 5.47925 9.96974 5.47925 10.7322V34.9766C5.47941 35.7245 5.77655 36.4418 6.30535 36.9707C6.83415 37.4996 7.55133 37.7969 8.29925 37.7972L11.0849 36.6204C11.0768 36.539 11.0726 36.4572 11.0724 36.3754V12.1316H11.073Z" fill="#34484C"/>
<path d="M34.4599 30.086C34.4599 31.6435 33.6618 32.0528 31.6399 32.906L13.8861 39.1997C13.1383 39.1995 12.4212 38.9024 11.8925 38.3735C11.3638 37.8447 11.0668 37.1275 11.0668 36.3797V12.136C11.0668 10.5766 11.983 10.0585 13.8861 9.31409L31.6399 3.01971C32.0103 3.01955 32.377 3.09238 32.7193 3.23404C33.0615 3.3757 33.3724 3.58341 33.6343 3.84531C33.8962 4.1072 34.1039 4.41814 34.2456 4.76035C34.3872 5.10257 34.4601 5.46934 34.4599 5.83971V30.0897" fill="#089083"/>
<path d="M27.1106 10.4191C27.1287 10.4658 27.1374 10.5156 27.1362 10.5658C27.1351 10.6159 27.124 10.6652 27.1037 10.7111C27.0833 10.7569 27.0542 10.7982 27.0178 10.8328C26.9815 10.8673 26.9386 10.8943 26.8918 10.9122L17.4481 14.5553C17.4015 14.5734 17.3517 14.5821 17.3017 14.5809C17.2517 14.5796 17.2024 14.5684 17.1567 14.548C17.1111 14.5275 17.07 14.4981 17.0357 14.4616C17.0015 14.4251 16.9749 14.3822 16.9575 14.3353C16.9388 14.2889 16.9296 14.2393 16.9303 14.1892C16.9311 14.1392 16.9419 14.0899 16.9621 14.0441C16.9822 13.9983 17.0113 13.9571 17.0477 13.9227C17.084 13.8883 17.1269 13.8616 17.1737 13.8441L26.6162 10.2009C26.8143 10.1259 27.035 10.2234 27.11 10.4197" fill="#78111F"/>
<path d="M27.111 12.1566C27.1291 12.2033 27.1377 12.2531 27.1365 12.3032C27.1353 12.3533 27.1242 12.4027 27.1039 12.4485C27.0836 12.4943 27.0544 12.5356 27.0181 12.5701C26.9818 12.6047 26.9391 12.6317 26.8923 12.6497L17.4485 16.2928C17.402 16.311 17.3523 16.3197 17.3023 16.3186C17.2524 16.3174 17.2032 16.3063 17.1575 16.2859C17.1119 16.2656 17.0707 16.2364 17.0365 16.2C17.0022 16.1636 16.9755 16.1208 16.9579 16.0741C16.9393 16.0276 16.9301 15.9778 16.931 15.9278C16.9318 15.8777 16.9426 15.8283 16.9627 15.7824C16.9828 15.7366 17.0119 15.6952 17.0482 15.6607C17.0845 15.6262 17.1273 15.5993 17.1742 15.5816L26.6167 11.9384C26.6634 11.9203 26.7132 11.9115 26.7633 11.9126C26.8134 11.9137 26.8628 11.9246 26.9086 11.9448C26.9545 11.965 26.9959 11.9941 27.0305 12.0303C27.0652 12.0665 27.0923 12.1092 27.1104 12.1559" fill="#78111F"/>
<path d="M23.9006 15.1891C23.9768 15.3866 23.93 15.5866 23.7943 15.6391L17.3468 18.1253C17.2118 18.1766 17.0418 18.0591 16.9668 17.8628C16.8918 17.6653 16.9387 17.4653 17.0731 17.4147L23.5218 14.9272C23.655 14.8759 23.8268 14.9922 23.9006 15.1897" fill="#78111F"/>
</svg>
