<svg width="13" height="17" viewBox="0 0 13 17" fill="none" xmlns="http://www.w3.org/2000/svg">
<path d="M12.1875 16.25H0.8125C0.597012 16.25 0.390348 16.1644 0.237975 16.012C0.0856018 15.8597 0 15.653 0 15.4375L0 0.8125C0 0.597012 0.0856018 0.390348 0.237975 0.237975C0.390348 0.0856018 0.597012 0 0.8125 0H12.1875C12.403 0 12.6097 0.0856018 12.762 0.237975C12.9144 0.390348 13 0.597012 13 0.8125L13 15.4375C13 15.653 12.9144 15.8597 12.762 16.012C12.6097 16.1644 12.403 16.25 12.1875 16.25ZM8.9375 8.9375V11.375L13 8.125L8.9375 4.875L8.9375 7.3125L4.0625 7.3125V8.9375H8.9375Z" fill="#999999"/>
</svg>
