<svg width="2.5rem" height="2.5rem" viewBox="0 0 76 76" fill="none" xmlns="http://www.w3.org/2000/svg">
<path d="M7.36017 68.2528C7.36017 68.2528 9.53329 76.5985 23.1076 74.4622L25.4268 68.8762L21.5199 64.6297L10.7077 61.0648L7.36611 68.2528" fill="#34484C"/>
<path d="M50.6255 52.611C50.6255 55.5703 49.1079 56.3481 45.2699 57.969L12.483 71.8117C11.7793 71.8117 11.0824 71.6731 10.4323 71.4037C9.78217 71.1344 9.19145 70.7396 8.6939 70.242C8.19635 69.7443 7.80171 69.1535 7.53251 68.5033C7.26332 67.8531 7.12484 67.1562 7.125 66.4525V20.3894C7.125 17.4278 8.86588 16.4421 12.483 15.0302L45.2699 1.1875C45.9734 1.1875 46.67 1.32611 47.3199 1.5954C47.9699 1.86469 48.5604 2.2594 49.0577 2.75697C49.5551 3.25453 49.9495 3.84521 50.2185 4.49526C50.4875 5.14531 50.6258 5.84199 50.6255 6.5455V52.6205" fill="#085B50"/>
<path d="M10.1056 71.2476C10.1056 71.2476 22.3926 74.7745 23.1087 74.4705C23.8271 74.1677 22.6515 69.1422 22.6515 69.1422L18.2091 64.353L14.0694 64.1606L13.3415 65.1937L10.1044 71.2476" fill="#34484C"/>
<path d="M44.4981 4.37002L8.12732 19.6484L9.83257 29.4453L15.2476 29.9832L33.313 27.075L44.5468 21.1886L52.8177 9.8634C51.0103 6.62152 48.3574 4.61583 44.4981 4.36765" fill="#F4F5F5"/>
<path d="M17.7637 23.0375C17.7637 22.1766 17.9134 21.4914 18.2091 20.9071C14.4851 20.5604 10.9677 19.4821 8.40625 17.1725C7.556 17.9562 7.13562 18.93 7.13562 20.3787V66.443C7.13593 67.8641 7.7005 69.2268 8.70522 70.2318C9.70993 71.2367 11.0726 71.8016 12.4936 71.8022L17.7863 69.5661C17.7709 69.4115 17.763 69.2561 17.7626 69.1006V23.0375H17.7637Z" fill="#34484C"/>
<path d="M62.1989 57.1508C62.1989 60.1101 60.6824 60.8879 56.8409 62.5088L23.1088 74.467C21.6879 74.4666 20.3254 73.902 19.3209 72.8972C18.3163 71.8924 17.752 70.5298 17.752 69.109V23.0458C17.752 20.083 19.4928 19.0986 23.1088 17.6843L56.8409 5.72495C57.5446 5.72463 58.2415 5.86301 58.8917 6.13216C59.5419 6.40132 60.1327 6.79597 60.6303 7.29357C61.1279 7.79117 61.5225 8.38196 61.7917 9.03216C62.0608 9.68236 62.1992 10.3792 62.1989 11.0829V57.158" fill="#089083"/>
<path d="M48.235 19.7837C48.2695 19.8725 48.2861 19.9673 48.2838 20.0625C48.2815 20.1577 48.2605 20.2515 48.2219 20.3386C48.1833 20.4256 48.1278 20.5042 48.0588 20.5698C47.9897 20.6353 47.9084 20.6866 47.8194 20.7207L29.8763 27.6426C29.7877 27.6771 29.6931 27.6936 29.5981 27.6912C29.5031 27.6888 29.4095 27.6675 29.3227 27.6286C29.236 27.5898 29.1579 27.534 29.0929 27.4646C29.0279 27.3953 28.9773 27.3137 28.9441 27.2246C28.9086 27.1365 28.8911 27.0421 28.8926 26.9471C28.8941 26.8521 28.9146 26.7583 28.9529 26.6714C28.9912 26.5844 29.0465 26.506 29.1155 26.4407C29.1846 26.3754 29.266 26.3246 29.355 26.2912L47.2957 19.3693C47.6722 19.2268 48.0914 19.4121 48.2339 19.7849" fill="#78111F"/>
<path d="M48.235 23.085C48.2693 23.1738 48.2857 23.2685 48.2834 23.3637C48.2811 23.4588 48.26 23.5526 48.2214 23.6396C48.1828 23.7266 48.1274 23.8052 48.0584 23.8708C47.9895 23.9364 47.9082 23.9877 47.8194 24.0219L29.8763 30.9439C29.7878 30.9784 29.6934 30.995 29.5985 30.9928C29.5036 30.9905 29.4101 30.9695 29.3233 30.9308C29.2366 30.8922 29.1584 30.8367 29.0933 30.7676C29.0282 30.6984 28.9775 30.6171 28.9441 30.5282C28.9087 30.4399 28.8913 30.3454 28.8929 30.2503C28.8944 30.1551 28.9149 30.0613 28.9532 29.9742C28.9914 29.887 29.0467 29.8084 29.1157 29.7429C29.1846 29.6773 29.266 29.6262 29.355 29.5925L47.2957 22.6706C47.3844 22.636 47.4791 22.6193 47.5743 22.6214C47.6695 22.6235 47.7633 22.6443 47.8504 22.6827C47.9376 22.7211 48.0163 22.7763 48.0821 22.8451C48.1478 22.9139 48.1994 22.995 48.2338 23.0838" fill="#78111F"/>
<path d="M42.1348 28.8467C42.2797 29.222 42.1906 29.602 41.9329 29.7017L29.6827 34.4256C29.4262 34.523 29.1032 34.2997 28.9607 33.9269C28.8182 33.5516 28.9073 33.1716 29.1626 33.0754L41.4152 28.3492C41.6681 28.2518 41.9947 28.4727 42.1348 28.8479" fill="#78111F"/>
</svg>
