<svg width="15" height="17" viewBox="0 0 13 15" fill="none" xmlns="http://www.w3.org/2000/svg">
<path d="M10.1111 9.14634C10.9128 9.14634 11.635 9.47561 12.155 10.0024L13 9.14634V12.0732H10.1111L11.3894 10.778C11.1293 10.5144 10.7959 10.3376 10.4338 10.2712C10.0718 10.2049 9.69835 10.2522 9.36356 10.4068C9.02876 10.5614 8.74859 10.816 8.56055 11.1364C8.37251 11.4568 8.28557 11.8278 8.31139 12.1996C8.3372 12.5715 8.47454 12.9265 8.705 13.2171C8.93546 13.5077 9.24804 13.72 9.6009 13.8256C9.95376 13.9312 10.3301 13.9251 10.6794 13.8081C11.0287 13.691 11.3344 13.4687 11.5556 13.1707H12.7906C12.5754 13.7119 12.2052 14.1754 11.7276 14.5015C11.25 14.8275 10.687 15.0012 10.1111 15C8.515 15 7.22222 13.6902 7.22222 12.0732C7.22222 10.4561 8.515 9.14634 10.1111 9.14634ZM6.5 5.12195H10.4722L6.5 1.09756V5.12195ZM1.44444 0H7.22222L11.5556 4.39024V7.44146C11.1944 7.36097 10.8333 7.31707 10.4722 7.31707C9.22718 7.31707 8.03313 7.81816 7.15275 8.7101C6.27237 9.60204 5.77778 10.8118 5.77778 12.0732C5.77778 13.0171 6.045 13.9024 6.5 14.6341H1.44444C0.635556 14.6341 0 13.9756 0 13.1707V1.46341C0 0.651219 0.642778 0 1.44444 0Z" fill="#999999"/>
</svg>
