<svg width="18" height="18" viewBox="0 0 18 18" fill="none" xmlns="http://www.w3.org/2000/svg">
<path d="M9 0C4.02991 0 0 4.02991 0 9C0 13.9701 4.02991 18 9 18C13.9701 18 18 13.9701 18 9C18 4.02991 13.9701 0 9 0ZM12.3228 12.4192L10.9969 12.4132L9 10.0326L7.00513 12.4112L5.67723 12.4172C5.58884 12.4172 5.51652 12.3469 5.51652 12.2565C5.51652 12.2183 5.53058 12.1821 5.55469 12.152L8.1683 9.03817L5.55469 5.92634C5.53041 5.8969 5.51694 5.86003 5.51652 5.82187C5.51652 5.73348 5.58884 5.66116 5.67723 5.66116L7.00513 5.66719L9 8.04777L10.9949 5.6692L12.3208 5.66317C12.4092 5.66317 12.4815 5.73348 12.4815 5.82388C12.4815 5.86205 12.4674 5.89821 12.4433 5.92835L9.83371 9.04018L12.4453 12.154C12.4694 12.1842 12.4835 12.2203 12.4835 12.2585C12.4835 12.3469 12.4112 12.4192 12.3228 12.4192Z" fill="#FF3C3C"/>
</svg>
