<svg width="8" height="7" viewBox="0 0 8 7" fill="none" xmlns="http://www.w3.org/2000/svg">
<path d="M0.285728 -6.49216e-06L7.71427 -6.49216e-06C7.76376 -9.38296e-06 7.81241 0.0115272 7.85544 0.0334727C7.89848 0.0554181 7.93442 0.0870198 7.95975 0.125181C7.98508 0.163343 7.99893 0.206755 7.99994 0.251165C8.00095 0.295575 7.98909 0.339459 7.96552 0.378517L4.25125 6.53233C4.22674 6.57296 4.19045 6.60689 4.14622 6.63053C4.102 6.65417 4.05148 6.66666 4 6.66666C3.94852 6.66666 3.898 6.65417 3.85377 6.63053C3.80955 6.60689 3.77326 6.57296 3.74875 6.53233L0.0344785 0.378517C0.0109062 0.339459 -0.000955592 0.295575 5.53641e-05 0.251165C0.00106632 0.206755 0.0149156 0.163343 0.0402458 0.125181C0.0655759 0.0870198 0.101518 0.0554181 0.144551 0.0334727C0.187584 0.0115272 0.236232 -9.38296e-06 0.285728 -6.49216e-06Z" fill="white"/>
</svg>
