<svg width="16" height="16" viewBox="0 0 16 16" fill="none" xmlns="http://www.w3.org/2000/svg">
<path d="M15.1615 0.395024L15.6003 0.829109C16.205 1.428 16.1135 2.48967 15.3943 3.20039L6.34499 12.1521L3.4131 13.213C3.04494 13.3469 2.68645 13.1733 2.61356 12.8268C2.58893 12.7011 2.60053 12.571 2.64703 12.4515L3.74035 9.52625L12.7644 0.598824C13.4836 -0.111898 14.5568 -0.20313 15.1615 0.39576V0.395024ZM5.95005 1.28527C6.04773 1.28527 6.14444 1.3043 6.23468 1.34127C6.32491 1.37824 6.4069 1.43244 6.47597 1.50076C6.54503 1.56908 6.59982 1.65018 6.6372 1.73945C6.67457 1.82871 6.69381 1.92438 6.69381 2.021C6.69381 2.11762 6.67457 2.21329 6.6372 2.30256C6.59982 2.39182 6.54503 2.47293 6.47597 2.54125C6.4069 2.60957 6.32491 2.66376 6.23468 2.70073C6.14444 2.73771 6.04773 2.75674 5.95005 2.75674H2.97503C2.58051 2.75674 2.20216 2.91177 1.9232 3.18772C1.64423 3.46368 1.48751 3.83795 1.48751 4.22821V13.0571C1.48751 13.4473 1.64423 13.8216 1.9232 14.0975C2.20216 14.3735 2.58051 14.5285 2.97503 14.5285H11.9001C12.2946 14.5285 12.673 14.3735 12.9519 14.0975C13.2309 13.8216 13.3876 13.4473 13.3876 13.0571V10.1141C13.3876 9.91898 13.466 9.73184 13.6055 9.59386C13.7449 9.45588 13.9341 9.37837 14.1314 9.37837C14.3286 9.37837 14.5178 9.45588 14.6573 9.59386C14.7968 9.73184 14.8751 9.91898 14.8751 10.1141V13.0571C14.8751 13.8376 14.5617 14.5861 14.0038 15.138C13.4458 15.6899 12.6891 16 11.9001 16H2.97503C2.186 16 1.42929 15.6899 0.871365 15.138C0.313439 14.5861 0 13.8376 0 13.0571V4.22821C0 3.44769 0.313439 2.69914 0.871365 2.14724C1.42929 1.59533 2.186 1.28527 2.97503 1.28527H5.95005V1.28527Z" fill="#121212"/>
</svg>
