<svg width="31" height="31" viewBox="0 0 31 31" fill="none" xmlns="http://www.w3.org/2000/svg">
<path fill-rule="evenodd" clip-rule="evenodd" d="M15.5 0C6.93977 0 0 6.93977 0 15.5C0 24.0602 6.93977 31 15.5 31C24.0602 31 31 24.0602 31 15.5C31 6.93977 24.0602 0 15.5 0ZM16.9091 21.1364C16.9091 21.5101 16.7606 21.8685 16.4964 22.1327C16.2321 22.397 15.8737 22.5455 15.5 22.5455C15.1263 22.5455 14.7679 22.397 14.5036 22.1327C14.2394 21.8685 14.0909 21.5101 14.0909 21.1364V16.9091H9.86364C9.48992 16.9091 9.13151 16.7606 8.86726 16.4964C8.603 16.2321 8.45455 15.8737 8.45455 15.5C8.45455 15.1263 8.603 14.7679 8.86726 14.5036C9.13151 14.2394 9.48992 14.0909 9.86364 14.0909H14.0909V9.86364C14.0909 9.48992 14.2394 9.13151 14.5036 8.86726C14.7679 8.603 15.1263 8.45455 15.5 8.45455C15.8737 8.45455 16.2321 8.603 16.4964 8.86726C16.7606 9.13151 16.9091 9.48992 16.9091 9.86364V14.0909H21.1364C21.5101 14.0909 21.8685 14.2394 22.1327 14.5036C22.397 14.7679 22.5455 15.1263 22.5455 15.5C22.5455 15.8737 22.397 16.2321 22.1327 16.4964C21.8685 16.7606 21.5101 16.9091 21.1364 16.9091H16.9091V21.1364Z" fill="#121212"/>
</svg>
