<svg width="20" height="20" viewBox="0 0 20 20" fill="none" xmlns="http://www.w3.org/2000/svg">
<path d="M16.51 13.163V5.997C16.505 4.391 15.433 2 12.5 2V0L8.5 3L12.5 6V4C14.329 4 14.501 5.539 14.51 6V13.163C13.07 13.597 12.01 14.92 12.01 16.5C12.01 18.43 13.58 20 15.51 20C17.44 20 19.01 18.43 19.01 16.5C19.01 14.92 17.95 13.597 16.51 13.163V13.163ZM15.51 18C14.683 18 14.01 17.327 14.01 16.5C14.01 15.673 14.683 15 15.51 15C16.337 15 17.01 15.673 17.01 16.5C17.01 17.327 16.337 18 15.51 18ZM7 3.5C7 1.57 5.43 0 3.5 0C1.57 0 0 1.57 0 3.5C0 5.08 1.06 6.403 2.5 6.837V13.163C1.06 13.597 0 14.92 0 16.5C0 18.43 1.57 20 3.5 20C5.43 20 7 18.43 7 16.5C7 14.92 5.94 13.597 4.5 13.163V6.837C5.94 6.403 7 5.08 7 3.5ZM2 3.5C2 2.673 2.673 2 3.5 2C4.327 2 5 2.673 5 3.5C5 4.327 4.327 5 3.5 5C2.673 5 2 4.327 2 3.5ZM5 16.5C5 17.327 4.327 18 3.5 18C2.673 18 2 17.327 2 16.5C2 15.673 2.673 15 3.5 15C4.327 15 5 15.673 5 16.5Z" fill="#121212"/>
</svg>
