<svg width="14" height="14" viewBox="0 0 14 14" fill="none" xmlns="http://www.w3.org/2000/svg">
<path d="M6.63264 8.90611C6.16479 8.90611 5.72668 8.7246 5.39496 8.39288C5.06481 8.06117 4.88174 7.62305 4.88174 7.1552C4.88174 6.68736 5.06481 6.24924 5.39496 5.91752C5.72668 5.58737 6.16479 5.4043 6.63264 5.4043C7.10049 5.4043 7.5386 5.58737 7.87032 5.91752C8.20047 6.24924 8.38355 6.68736 8.38355 7.1552C8.38355 7.62305 8.20047 8.06117 7.87032 8.39288C7.7083 8.55615 7.51546 8.68559 7.30299 8.7737C7.09051 8.8618 6.86265 8.90681 6.63264 8.90611V8.90611ZM13.0839 5.22123L12.0606 6.0959C12.1091 6.39319 12.1341 6.69674 12.1341 6.99873C12.1341 7.30072 12.1091 7.60584 12.0606 7.90157L13.0839 8.77624C13.1612 8.84241 13.2165 8.93055 13.2425 9.02894C13.2685 9.12732 13.264 9.23129 13.2294 9.32701L13.2154 9.36769C12.9337 10.1552 12.5117 10.8852 11.9698 11.5223L11.9417 11.5551C11.8759 11.6325 11.7882 11.6881 11.6901 11.7147C11.5921 11.7412 11.4883 11.7374 11.3925 11.7038L10.1219 11.2516C9.65252 11.6365 9.12991 11.9401 8.56349 12.1513L8.31783 13.4797C8.29929 13.5798 8.25075 13.6719 8.17864 13.7437C8.10653 13.8155 8.01428 13.8637 7.91413 13.8819L7.87189 13.8897C7.05824 14.0368 6.20078 14.0368 5.38714 13.8897L5.34489 13.8819C5.24474 13.8637 5.15249 13.8155 5.08038 13.7437C5.00828 13.6719 4.95973 13.5798 4.9412 13.4797L4.69397 12.145C4.13291 11.9321 3.61025 11.6293 3.14648 11.2485L1.86655 11.7038C1.77074 11.7377 1.66688 11.7416 1.56878 11.7151C1.47068 11.6885 1.38298 11.6327 1.31734 11.5551L1.28918 11.5223C0.748247 10.8845 0.32637 10.1547 0.0436726 9.36769L0.0295902 9.32701C-0.0408214 9.13142 0.0170727 8.91236 0.175108 8.77624L1.21094 7.89218C1.16244 7.59801 1.13897 7.29759 1.13897 7.0003C1.13897 6.69987 1.16244 6.39945 1.21094 6.10841L0.178237 5.22436C0.100934 5.15818 0.0456072 5.07004 0.0196136 4.97165C-0.00637996 4.87327 -0.00180874 4.7693 0.0327196 4.67358L0.046802 4.6329C0.330013 3.84585 0.747789 3.11827 1.29231 2.4783L1.32047 2.44544C1.38627 2.36807 1.47397 2.31245 1.57202 2.28592C1.67006 2.25938 1.77384 2.26317 1.86968 2.2968L3.14961 2.75212C3.61589 2.36877 4.13537 2.06522 4.6971 1.85555L4.94433 0.520857C4.96286 0.420782 5.01141 0.328714 5.08351 0.256887C5.15562 0.18506 5.24787 0.136873 5.34802 0.118727L5.39027 0.110904C6.21192 -0.0369692 7.05337 -0.0369692 7.87502 0.110904L7.91726 0.118727C8.01741 0.136873 8.10966 0.18506 8.18177 0.256887C8.25388 0.328714 8.30242 0.420782 8.32096 0.520857L8.56662 1.84929C9.13304 2.06209 9.65565 2.36408 10.1251 2.749L11.3956 2.2968C11.4914 2.26291 11.5953 2.25898 11.6934 2.28553C11.7915 2.31208 11.8792 2.36786 11.9448 2.44544L11.973 2.4783C12.5175 3.12139 12.9353 3.84585 13.2185 4.6329L13.2326 4.67358C13.2998 4.8676 13.242 5.0851 13.0839 5.22123ZM6.63264 4.40445C5.11331 4.40445 3.88189 5.63587 3.88189 7.1552C3.88189 8.67453 5.11331 9.90595 6.63264 9.90595C8.15197 9.90595 9.38339 8.67453 9.38339 7.1552C9.38339 5.63587 8.15197 4.40445 6.63264 4.40445Z" fill="#999999"/>
</svg>
